<svg width="65" height="59" viewBox="0 0 65 59" fill="none" xmlns="http://www.w3.org/2000/svg">
<path d="M13.8392 18.723C11.8833 20.6788 11.8889 23.9019 13.8429 25.8576L24.665 36.6797C26.6207 38.6354 29.8382 38.6354 31.7941 36.6797L33.9168 34.5569L33.914 34.5542L34.9719 33.4963L17.018 15.5424L13.8392 18.723ZM18.2199 14.3423L36.1738 32.2962L44.5956 23.8744L26.6417 5.92051L18.2199 14.3423ZM27.8418 4.72032L45.7958 22.6742L47.5124 20.9576L47.5151 20.9603L48.975 19.5005C50.9306 17.5449 50.9334 14.3217 48.9776 12.366L38.157 1.54533C37.1793 0.567416 35.8846 0.0786133 34.5883 0.0786133C33.2921 0.0786133 31.9948 0.567388 31.0169 1.5453L27.8418 4.72032ZM5.36356 41.8601C5.20554 42.018 5.0802 42.2055 4.99467 42.4119C4.90914 42.6183 4.86511 42.8395 4.86511 43.063C4.86511 43.2864 4.90912 43.5076 4.99464 43.714C5.08016 43.9204 5.20551 44.108 5.36353 44.2659L9.97909 48.8786C10.137 49.0366 10.3246 49.162 10.531 49.2475C10.7374 49.333 10.9586 49.3771 11.182 49.3771C11.4054 49.3771 11.6267 49.333 11.8331 49.2475C12.0395 49.162 12.227 49.0366 12.3849 48.8786C12.543 48.7207 12.6683 48.5332 12.7538 48.3268C12.8393 48.1204 12.8833 47.8991 12.8833 47.6757C12.8833 47.4523 12.8393 47.2311 12.7538 47.0247C12.6682 46.8183 12.5429 46.6308 12.3849 46.4728L7.76939 41.8601C7.61095 41.7026 7.42305 41.5779 7.21641 41.4931C7.00978 41.4082 6.78845 41.3649 6.56508 41.3656C6.11493 41.3649 5.68286 41.5427 5.36356 41.8601ZM0.709337 52.8755C0.499045 53.1669 0.386455 53.5174 0.387706 53.8767C0.388614 54.3266 0.567729 54.7578 0.885839 55.0759C1.20395 55.394 1.63514 55.5731 2.08502 55.574L8.61055 55.5727C9.06139 55.5732 9.49402 55.3948 9.81333 55.0765C10.1326 54.7582 10.3125 54.3262 10.3134 53.8753C10.3141 53.6512 10.2704 53.4291 10.1849 53.2219C10.0994 53.0147 9.9738 52.8264 9.81529 52.6679C9.65678 52.5093 9.46849 52.3837 9.26127 52.2982C9.05405 52.2128 8.83196 52.1691 8.6078 52.1697L2.08638 52.1725C1.81765 52.1726 1.55276 52.2363 1.31343 52.3585C1.07409 52.4807 0.867109 52.6579 0.709452 52.8755H0.709337ZM16.0005 37.5843C15.7897 37.8746 15.6761 38.224 15.6759 38.5828V45.107C15.6752 45.3307 15.7187 45.5523 15.8039 45.7591C15.889 45.966 16.0141 46.154 16.1721 46.3125C16.33 46.4709 16.5176 46.5966 16.7242 46.6824C16.9308 46.7682 17.1522 46.8125 17.3759 46.8125C17.5998 46.813 17.8217 46.7692 18.0287 46.6837C18.2356 46.5983 18.4237 46.4727 18.582 46.3144C18.7404 46.156 18.8659 45.968 18.9514 45.761C19.0369 45.554 19.0806 45.3322 19.0802 45.1083V38.5814C19.0799 38.3579 19.0356 38.1367 18.9498 37.9304C18.864 37.724 18.7384 37.5366 18.5801 37.3789C18.4218 37.2211 18.234 37.0961 18.0274 37.011C17.8208 36.9258 17.5994 36.8822 17.376 36.8827L17.3745 36.8841C17.1065 36.8842 16.8423 36.9478 16.6035 37.0695C16.3647 37.1912 16.158 37.3676 16.0004 37.5843H16.0005ZM13.2425 50.2418C12.6131 50.8712 12.2205 51.7355 12.2206 52.6807L12.2205 55.4125C12.2205 57.3029 13.7923 58.8805 15.6829 58.8804L38.3905 58.8803C40.2809 58.8804 41.8597 57.3015 41.8596 55.4111L41.8597 52.6821C41.8597 50.7917 40.2806 49.2186 38.3904 49.2184H15.6829C14.7377 49.2184 13.872 49.6123 13.2425 50.2418ZM37.3795 33.5019L54.7851 50.9074C57.0963 53.2187 60.8902 53.2186 63.2013 50.9074C65.5124 48.5962 65.5209 44.7999 63.2089 42.4871L45.8019 25.0801L37.3795 33.5019Z" fill="#094067"/>
</svg>
