<svg width="66" height="60" viewBox="0 0 66 60" fill="none" xmlns="http://www.w3.org/2000/svg">
<path d="M32.3592 0.213231C30.7431 0.265766 29.5921 1.17028 28.3358 2.17612L28.3199 2.19163L1.90781 24.5725L1.87644 24.6039C0.490738 25.9146 -0.361561 27.752 0.149839 29.6312C0.405751 30.5708 1.07233 31.437 1.97993 31.971C2.88743 32.5051 3.98583 32.7445 5.25723 32.7445H7.31003V53.3031C7.31003 54.708 7.85714 56.0358 8.76514 57.1058C9.67314 58.1758 11.052 59.0179 12.685 59.0179H22.3178C24.8965 59.0179 27.3451 56.9423 27.3451 54.0726V52.3226C27.3451 52.1132 27.4732 51.858 27.9213 51.5472C28.3693 51.2365 29.0797 51.0374 29.3979 51.0374H32.5932H35.7963C36.1145 51.0374 36.8244 51.2363 37.2729 51.5472C37.7214 51.8583 37.849 52.1138 37.849 52.3226V54.0726C37.849 56.9412 40.2978 59.0179 42.8764 59.0179H52.5092C54.1421 59.0179 55.5211 58.1758 56.4291 57.1058C57.3371 56.0358 57.8842 54.708 57.8842 53.3031V32.7445H59.9291C61.2006 32.7445 62.3066 32.5106 63.2143 31.9769C64.1219 31.443 64.7883 30.5707 65.0444 29.6312C65.5566 27.7521 64.7019 25.9148 63.3158 24.6039L63.2863 24.5725L55.1595 17.6858V9.25607C55.1595 6.7264 53.0739 4.63498 50.5443 4.63498H46.3156C44.6406 4.63498 43.4268 5.70143 42.6165 7.05492L36.8742 2.19163L36.8508 2.17612C35.546 1.13157 34.3084 0.190101 32.6438 0.219113C32.5629 0.215912 32.4826 0.213058 32.4074 0.213058C32.3923 0.21333 32.3764 0.212717 32.3625 0.213058L32.3859 1.91617C32.3852 1.9162 32.3845 1.91614 32.3839 1.91617L32.3592 0.213231Z" fill="#094067"/>
</svg>
