<svg width="58" height="60" viewBox="0 0 58 60" fill="none" xmlns="http://www.w3.org/2000/svg">
<path d="M29.121 0.533539C20.4571 0.533539 13.3963 7.59229 13.3963 16.2562C13.3963 24.9201 20.4571 31.9808 29.121 31.9808C37.785 31.9808 44.8437 24.9201 44.8437 16.2562C44.8437 7.59229 37.785 0.533569 29.121 0.533539ZM17.7304 34.4671C10.9608 34.4671 6.53147 38.1932 4.06627 42.5296C1.60567 46.8583 0.827746 51.7784 0.544849 54.9457C0.390266 56.3922 0.997967 57.8417 2.05067 58.6957C3.10767 59.553 4.46697 59.9066 5.91197 59.9066H29.121H52.3359C53.7809 59.9066 55.1324 59.5529 56.1894 58.6957C57.2421 57.8417 57.8499 56.3923 57.6952 54.9457C57.4121 51.7783 56.6344 46.8583 54.1738 42.5296C51.7087 38.1932 47.287 34.4671 40.5175 34.4671C38.1806 34.4671 36.6682 35.2763 35.2772 35.8695C33.8862 36.4627 32.3914 37.0003 29.121 37.0003C25.8507 37.0003 24.3558 36.4627 22.9648 35.8695C21.5738 35.2763 20.0673 34.4671 17.7304 34.4671Z" fill="#094067"/>
</svg>
