<svg width="34" height="34" viewBox="0 0 34 34" fill="none" xmlns="http://www.w3.org/2000/svg">
<path d="M16.6571 0.568222C7.48399 0.568222 0.0244141 8.02778 0.0244141 17.2009C0.0244141 26.374 7.48399 33.8335 16.6571 33.8335C25.8302 33.8335 33.2886 26.374 33.2886 17.2009C33.2886 8.02778 25.8302 0.568222 16.6571 0.568222ZM16.6571 4.8812C17.2369 4.88207 17.7928 5.11287 18.2027 5.52299C18.6126 5.93311 18.8431 6.48907 18.8437 7.06893V20.6776C18.844 21.258 18.6138 21.8148 18.2038 22.2256C17.7938 22.6364 17.2375 22.8677 16.6571 22.8686C16.3692 22.8689 16.0841 22.8124 15.8181 22.7024C15.5521 22.5924 15.3104 22.431 15.1068 22.2275C14.9032 22.024 14.7417 21.7824 14.6315 21.5164C14.5214 21.2505 14.4648 20.9654 14.465 20.6776V7.06893C14.4655 6.48813 14.6968 5.93134 15.1079 5.52106C15.519 5.11079 16.0763 4.88062 16.6571 4.8812ZM16.6571 24.5378C17.2367 24.5387 17.7924 24.7694 18.2023 25.1793C18.6122 25.5891 18.8429 26.1448 18.8437 26.7245C18.8443 27.3051 18.6143 27.8622 18.2042 28.2732C17.7942 28.6843 17.2377 28.9157 16.6571 28.9166C16.3691 28.9169 16.0839 28.8604 15.8178 28.7503C15.5518 28.6402 15.31 28.4788 15.1064 28.2752C14.9028 28.0716 14.7413 27.8298 14.6313 27.5637C14.5212 27.2976 14.4647 27.0124 14.465 26.7245C14.4658 26.1439 14.6973 25.5874 15.1083 25.1773C15.5194 24.7673 16.0765 24.5373 16.6571 24.5378Z" fill="#094067"/>
</svg>
