<svg width="28" height="40" viewBox="0 0 28 40" fill="none" xmlns="http://www.w3.org/2000/svg">
<path d="M7.69531 29.6389C8.85248 31.1136 9.90565 32.6669 10.8472 34.2877C11.6511 35.8122 11.9862 36.8457 12.5738 38.6824C12.934 39.6972 13.2597 40 13.9598 40C14.7228 40 15.0689 39.4848 15.3363 38.688C15.8916 36.9535 16.3274 35.6297 17.0149 34.379C18.3639 31.9641 20.0402 29.8183 21.6873 27.7558C22.1333 27.1722 25.0162 23.7717 26.3141 21.0886C26.3141 21.0886 27.9093 18.1413 27.9093 14.025C27.9093 10.1746 26.3361 7.50412 26.3361 7.50412L21.8069 8.71705L19.0561 15.9616L18.3757 16.9606L18.2396 17.1415L18.0587 17.368L17.7409 17.7299L17.2871 18.1837L14.8376 20.1793L8.71396 23.7151L7.69531 29.6389Z" fill="#34A853"/>
<path d="M1.375 20.5931C2.86953 24.0069 5.75162 27.0078 7.7016 29.6413L18.0587 17.3728C18.0587 17.3728 16.5996 19.2811 13.9527 19.2811C11.0045 19.2811 8.6227 16.9268 8.6227 13.9582C8.6227 11.9225 9.84743 10.5239 9.84743 10.5239L2.81683 12.4078L1.375 20.5931Z" fill="#FBBC04"/>
<path d="M18.1743 0.630829C21.6141 1.73993 24.5583 4.06826 26.3392 7.50175L18.0618 17.3657C18.0618 17.3657 19.2865 15.9419 19.2865 13.9188C19.2865 10.881 16.7285 8.61164 13.9652 8.61164C11.3521 8.61164 9.85132 10.5168 9.85132 10.5168V4.30266L18.1743 0.630829Z" fill="#4285F4"/>
<path d="M3.27222 4.98938C5.32681 2.53127 8.94201 0 13.9259 0C16.3439 0 18.1656 0.634783 18.1656 0.634783L9.84344 10.5223H3.94712L3.27222 4.98938Z" fill="#1A73E8"/>
<path d="M1.37497 20.5931C1.37497 20.5931 0 17.9006 0 13.9998C0 10.3131 1.43318 7.09038 3.27224 4.98938L9.84819 10.5231L1.37497 20.5931Z" fill="#EA4335"/>
</svg>
