<svg width="42" height="42" viewBox="0 0 42 42" fill="none" xmlns="http://www.w3.org/2000/svg">
<path d="M12.4838 0C12.2341 0.0869337 11.9976 0.224554 11.7974 0.427208C11.3379 0.892532 11.1858 1.54184 11.3282 2.13517C11.4376 2.30649 11.5153 2.49202 11.562 2.68374C11.5869 2.72243 11.6073 2.76362 11.6353 2.80128L11.5939 2.84305C11.6772 3.39397 11.5087 3.97553 11.088 4.40157C10.6673 4.82759 10.0929 4.99811 9.54889 4.91385L9.50793 4.95534C9.47191 4.92725 9.43095 4.90797 9.39318 4.88326C9.20335 4.83604 9.0198 4.75631 8.85014 4.64524C8.2638 4.50079 7.62236 4.65554 7.16259 5.12128C6.70281 5.58685 6.5503 6.23592 6.69292 6.82966C6.80259 7.00149 6.88146 7.18727 6.92796 7.37956C6.95266 7.4178 6.97168 7.45883 6.99914 7.49575L6.95818 7.53724C7.04141 8.08815 6.8729 8.66972 6.45225 9.09574C6.03153 9.52177 5.45722 9.69228 4.91317 9.60802L4.8719 9.64995C4.83515 9.62112 4.79404 9.60126 4.7554 9.57611C4.56608 9.52874 4.38285 9.45019 4.21365 9.3394C3.62772 9.1951 2.98649 9.34822 2.52696 9.81453C2.06718 10.2801 1.91467 10.9301 2.05729 11.5238C2.16653 11.6949 2.24405 11.8805 2.29063 12.072C2.31561 12.1106 2.3358 12.1518 2.36413 12.1895L2.32274 12.2314C2.40598 12.7823 2.23746 13.3639 1.81681 13.7899C1.69813 13.9101 1.56516 14.005 1.42606 14.0845L6.57531 19.2987L19.0587 6.65785L12.4838 0ZM35.3767 23.1814L22.8932 35.8223L28.902 41.9068C29.524 42.116 30.233 41.974 30.7299 41.471C31.1894 41.0056 31.3424 40.3563 31.2 39.763C31.0906 39.5917 31.012 39.4062 30.9654 39.2144C30.9403 39.1756 30.9209 39.1345 30.8929 39.0969L30.9343 39.0551C30.8511 38.5042 31.0196 37.9226 31.4402 37.4966C31.8609 37.0706 32.4357 36.8996 32.9798 36.9839L33.0203 36.9428C33.0563 36.9709 33.0973 36.9902 33.135 37.0149C33.3249 37.0621 33.508 37.1414 33.6776 37.2525C34.264 37.3969 34.9058 37.2437 35.3656 36.7769C35.8254 36.3113 35.9775 35.6618 35.8349 35.0681C35.7252 34.8963 35.6468 34.7109 35.6003 34.5186C35.5756 34.4804 35.5565 34.4393 35.5291 34.4024L35.57 34.3609C35.4868 33.81 35.6556 33.228 36.0764 32.802C36.4971 32.376 37.071 32.2059 37.615 32.2901L37.6563 32.2482C37.6939 32.2762 37.7337 32.2966 37.7724 32.3216C37.9617 32.369 38.1453 32.448 38.3145 32.5588C38.9005 32.7029 39.5413 32.5485 40.0008 32.0832C40.4606 31.6176 40.6135 30.9681 40.4709 30.3744C40.3617 30.2032 40.2837 30.0172 40.2371 29.8258C40.212 29.7869 40.1922 29.7462 40.1642 29.7087L40.2052 29.6672C40.1379 29.222 40.2434 28.7613 40.5051 28.3743L35.3767 23.1814Z" fill="#EF4565"/>
<path d="M31.6843 1.97588C31.2245 1.51032 30.5831 1.35542 29.9967 1.49986C29.8277 1.61033 29.6441 1.68941 29.455 1.73658C29.4163 1.76159 29.3761 1.78144 29.3389 1.80998L29.2979 1.7685C28.8583 1.83661 28.4033 1.72982 28.0212 1.46484L0 29.8393C0.0858514 30.0922 0.221784 30.3317 0.421901 30.5344C0.881431 30.9997 1.52265 31.1537 2.10859 31.0095C2.2778 30.8987 2.46102 30.82 2.65034 30.7728C2.68884 30.7478 2.72966 30.7273 2.76685 30.699L2.80825 30.7409C3.35231 30.6566 3.92663 30.8272 4.34735 31.2532C4.76808 31.6792 4.93648 32.2608 4.85328 32.8117L4.89424 32.8532C4.86664 32.8901 4.84745 32.931 4.82304 32.9694C4.77641 33.1616 4.69769 33.3474 4.588 33.5193C4.44535 34.113 4.59816 34.7625 5.05809 35.2281C5.51786 35.6937 6.15887 35.8481 6.7452 35.7037C6.91487 35.5926 7.0984 35.5128 7.28826 35.4657C7.32617 35.4409 7.36655 35.4214 7.40301 35.3936L7.44397 35.4351C7.98802 35.3508 8.56234 35.5214 8.98307 35.9474C9.4038 36.3734 9.57219 36.955 9.489 37.5059L9.5304 37.5478C9.50237 37.5854 9.48217 37.6265 9.45748 37.6656C9.4107 37.8573 9.33313 38.0429 9.22372 38.2142C9.08136 38.8075 9.23244 39.4568 9.69294 39.9222C10.1527 40.3877 10.7946 40.5422 11.3809 40.3978C11.5499 40.2873 11.7332 40.2086 11.9223 40.1615C11.9607 40.1365 12.0011 40.1157 12.0383 40.0872L12.0796 40.129C12.6236 40.0447 13.198 40.2153 13.6187 40.6413C13.7374 40.7614 13.8311 40.8961 13.9096 41.037L41.3856 13.2146C41.5922 12.5847 41.4521 11.8668 40.9552 11.3636C40.4956 10.8983 39.8544 10.7434 39.2685 10.8876C39.0993 10.9984 38.916 11.078 38.7267 11.1252C38.6881 11.1502 38.6478 11.1702 38.6106 11.1986L38.5694 11.1568C38.0253 11.2411 37.451 11.0705 37.0303 10.6445C36.6095 10.2185 36.4407 9.63649 36.524 9.08558L36.4834 9.04454C36.511 9.00762 36.5302 8.96673 36.5546 8.92834C36.6011 8.73609 36.6795 8.55068 36.7892 8.37888C36.9319 7.78515 36.7805 7.1352 36.3195 6.66964C35.8598 6.20407 35.2183 6.05004 34.632 6.19448C34.4623 6.30554 34.2793 6.38495 34.0894 6.43205C34.0515 6.45676 34.0111 6.47633 33.9746 6.50413L33.9337 6.46264C33.3896 6.54693 32.8149 6.376 32.3941 5.94989C31.9734 5.52387 31.8055 4.94275 31.8887 4.39184L31.8472 4.34992C31.8753 4.31226 31.895 4.27151 31.9197 4.23239C31.9665 4.04066 32.0445 3.85469 32.154 3.68336C32.2963 3.09005 32.1438 2.44117 31.6843 1.97582V1.97588Z" fill="#EF4565"/>
</svg>
